Coordinates
version=1
nRows=32
nColumns=12
inDegrees=yes

Units are S.I. units (second, meters, Newtons, ...)
Angles are in degrees

endheader
time	SC_y	SC_z	SC_x	AC_y	AC_z	AC_x	GH_y	GH_z	GH_yy	EL_x	PS_y
       0.0              -39.65          36.69          14.01          39.73          -18.4         -19.42         -38.52          65.04         -29.93          17.41          81.51
   0.02749              -39.66          36.69          14.01          39.73         -18.39         -19.42         -38.52          65.04         -29.95          17.42          81.51
   0.05498              -39.66          36.68          14.01          39.73         -18.39         -19.42         -38.52          65.04         -29.97          17.44          81.51
   0.08248              -39.66          36.68          14.01          39.73         -18.39         -19.41         -38.51          65.04         -29.99          17.46           81.5
      0.11              -39.66          36.68          14.01          39.73         -18.39         -19.41         -38.51          65.05         -30.01          17.47           81.5
    0.1375              -39.67          36.68          14.01          39.72         -18.38         -19.41         -38.51          65.05         -30.03          17.49           81.5
     0.165              -39.67          36.67          14.01          39.72         -18.38          -19.4         -38.51          65.06         -30.06          17.51          81.49
    0.1924              -39.67          36.67          14.01          39.72         -18.37          -19.4         -38.51          65.06         -30.08          17.54          81.49
    0.2199              -39.68          36.67          14.01          39.72         -18.37         -19.39         -38.51          65.06         -30.11          17.56          81.48
    0.2474              -39.68          36.67          14.01          39.72         -18.37         -19.39          -38.5          65.07         -30.14          17.58          81.48
    0.2749              -39.69          36.66          14.01          39.72         -18.36         -19.38          -38.5          65.08         -30.17          17.61          81.47
    0.3024              -39.69          36.66          14.01          39.72         -18.36         -19.38          -38.5          65.08         -30.21          17.64          81.47
    0.3299               -39.7          36.66          14.01          39.72         -18.35         -19.37          -38.5          65.09         -30.24          17.67          81.46
    0.3574               -39.7          36.65          14.01          39.72         -18.34         -19.37          -38.5          65.09         -30.28          17.71          81.46
    0.3849              -39.71          36.65          14.01          39.71         -18.34         -19.36         -38.49           65.1         -30.33          17.74          81.45
    0.4124              -39.72          36.64          14.01          39.71         -18.33         -19.35         -38.49          65.11         -30.37          17.78          81.44
    0.4399              -39.72          36.64          14.01          39.71         -18.32         -19.34         -38.49          65.12         -30.43          17.83          81.43
    0.4674              -39.73          36.63          14.02          39.71         -18.31         -19.34         -38.48          65.13         -30.48          17.87          81.42
    0.4949              -39.74          36.63          14.02           39.7          -18.3         -19.33         -38.48          65.14         -30.54          17.92          81.41
    0.5224              -39.75          36.62          14.02           39.7         -18.29         -19.32         -38.47          65.15         -30.61          17.98           81.4
    0.5498              -39.76          36.61          14.02           39.7         -18.28          -19.3         -38.47          65.16         -30.68          18.04          81.39
    0.5773              -39.77          36.61          14.02           39.7         -18.27         -19.29         -38.46          65.17         -30.76          18.11          81.38
    0.6048              -39.78           36.6          14.02          39.69         -18.26         -19.28         -38.46          65.19         -30.85          18.19          81.36
    0.6323               -39.8          36.59          14.02          39.69         -18.24         -19.26         -38.45          65.21         -30.95          18.27          81.35
    0.6598              -39.81          36.58          14.02          39.68         -18.22         -19.24         -38.44          65.22         -31.06          18.36          81.33
    0.6873              -39.83          36.56          14.02          39.68         -18.21         -19.23         -38.44          65.24         -31.18          18.47          81.31
    0.7148              -39.85          36.55          14.02          39.67         -18.19          -19.2         -38.43          65.27         -31.31          18.58          81.29
    0.7423              -39.87          36.54          14.02          39.67         -18.16         -19.18         -38.42          65.29         -31.47          18.71          81.26
    0.7698               -39.9          36.52          14.02          39.66         -18.13         -19.15         -38.41          65.32         -31.64          18.86          81.24
    0.7973              -39.92           36.5          14.03          39.65          -18.1         -19.12         -38.39          65.35         -31.84          19.03           81.2
    0.8248              -39.95          36.48          14.03          39.65         -18.07         -19.08         -38.38          65.39         -32.06          19.22          81.17
    0.8523              -39.99          36.45          14.03          39.64         -18.03         -19.04         -38.36          65.44         -32.32          19.43          81.13
